<svg xmlns="http://www.w3.org/2000/svg" width="374" height="104" fill="none" viewBox="0 0 374 104" preserveAspectRatio="xMidYMid meet">
  <defs><linearGradient id="ton-promo-paint0" x1="285.044" x2="254.993" y1="29.075" y2="37.779" gradientUnits="userSpaceOnUse"><stop stop-color="#70FCC2"></stop><stop offset="1" stop-color="#007C48"></stop></linearGradient><linearGradient id="ton-promo-paint1" x1="258.849" x2="265.348" y1="37.367" y2="31.453" gradientUnits="userSpaceOnUse"><stop stop-color="#04814D"></stop><stop offset="1" stop-color="#1C6848"></stop></linearGradient><linearGradient id="ton-promo-paint2" x1="284.176" x2="253.311" y1="20.155" y2="36.119" gradientUnits="userSpaceOnUse"><stop stop-color="#11DB86"></stop><stop offset="0.972" stop-color="#146442"></stop></linearGradient><linearGradient id="ton-promo-paint3" x1="250.678" x2="287.093" y1="69.942" y2="48.121" gradientUnits="userSpaceOnUse"><stop stop-color="#28C281"></stop><stop offset="0.523" stop-color="#9CFCD4"></stop><stop offset="0.968" stop-color="#D3FEEC"></stop></linearGradient><linearGradient id="ton-promo-paint4" x1="257.32" x2="271.883" y1="53.851" y2="34.772" gradientUnits="userSpaceOnUse"><stop stop-color="#D98819"></stop><stop offset="0.644" stop-color="#FECC3D"></stop><stop offset="1" stop-color="#FFEE9D"></stop></linearGradient><linearGradient id="ton-promo-paint5" x1="285.818" x2="247.624" y1="27.255" y2="63.36" gradientUnits="userSpaceOnUse"><stop stop-color="azure"></stop><stop offset="0.481" stop-color="#CCFFF7"></stop><stop offset="1" stop-color="#5DE9AE"></stop></linearGradient><linearGradient id="ton-promo-paint6" x1="256.796" x2="286.083" y1="55.54" y2="39.385" gradientUnits="userSpaceOnUse"><stop stop-color="#17714B"></stop><stop offset="0.481" stop-color="#29B67A"></stop><stop offset="1" stop-color="#77F0BD"></stop></linearGradient><linearGradient id="ton-promo-paint7" x1="329.204" x2="297.926" y1="42.729" y2="62.375" gradientUnits="userSpaceOnUse"><stop stop-color="#70FCC2"></stop><stop offset="1" stop-color="#007C48"></stop></linearGradient><linearGradient id="ton-promo-paint8" x1="299.968" x2="297.756" y1="41.328" y2="48.991" gradientUnits="userSpaceOnUse"><stop stop-color="#0B392C" stop-opacity="0"></stop><stop offset="1" stop-color="#0B392C"></stop></linearGradient><linearGradient id="ton-promo-paint9" x1="291.187" x2="288.975" y1="61.312" y2="68.974" gradientUnits="userSpaceOnUse"><stop stop-color="#0B392C" stop-opacity="0"></stop><stop offset="1" stop-color="#0B392C"></stop></linearGradient><linearGradient id="ton-promo-paint10" x1="298.983" x2="293.116" y1="54.56" y2="60.736" gradientUnits="userSpaceOnUse"><stop stop-color="#0B392C"></stop><stop offset="1" stop-color="#0B392C" stop-opacity="0"></stop></linearGradient><linearGradient id="ton-promo-paint11" x1="306.015" x2="300.148" y1="35.276" y2="41.452" gradientUnits="userSpaceOnUse"><stop stop-color="#0B392C"></stop><stop offset="1" stop-color="#0B392C" stop-opacity="0"></stop></linearGradient><linearGradient id="ton-promo-paint12" x1="322.527" x2="314.903" y1="46.8" y2="55.875" gradientUnits="userSpaceOnUse"><stop stop-color="#0B392C" stop-opacity="0"></stop><stop offset="1" stop-color="#0B392C"></stop></linearGradient><linearGradient id="ton-promo-paint13" x1="276.979" x2="294.673" y1="78.273" y2="58.176" gradientUnits="userSpaceOnUse"><stop stop-color="#0A362A" stop-opacity="0"></stop><stop offset="0.513" stop-color="#0A362A"></stop><stop offset="1" stop-color="#0A362A" stop-opacity="0"></stop></linearGradient><linearGradient id="ton-promo-paint14" x1="326.251" x2="298.373" y1="30.471" y2="55.071" gradientUnits="userSpaceOnUse"><stop stop-color="#11DB86"></stop><stop offset="0.972" stop-color="#146442"></stop></linearGradient><linearGradient id="ton-promo-paint15" x1="291.564" x2="324.236" y1="82.182" y2="45.713" gradientUnits="userSpaceOnUse"><stop stop-color="#28C281"></stop><stop offset="0.353" stop-color="#9CFCD4"></stop><stop offset="0.968" stop-color="#D3FEEC"></stop></linearGradient><linearGradient id="ton-promo-paint16" x1="283.874" x2="313.22" y1="72.8" y2="34.246" gradientUnits="userSpaceOnUse"><stop stop-color="#D98819"></stop><stop offset="0.644" stop-color="#FECC3D"></stop><stop offset="1" stop-color="#FFEE9D"></stop></linearGradient><linearGradient id="ton-promo-paint17" x1="320.856" x2="276.007" y1="31.408" y2="68.923" gradientUnits="userSpaceOnUse"><stop stop-color="azure"></stop><stop offset="0.481" stop-color="#CCFFF7"></stop><stop offset="1" stop-color="#5DE9AE"></stop></linearGradient><linearGradient id="ton-promo-paint18" x1="281.376" x2="311.89" y1="75.228" y2="31.372" gradientUnits="userSpaceOnUse"><stop stop-color="#17714B"></stop><stop offset="0.481" stop-color="#29B67A"></stop><stop offset="1" stop-color="#77F0BD"></stop></linearGradient><linearGradient id="ton-promo-paint19" x1="338.192" x2="325.178" y1="50.634" y2="80.004" gradientUnits="userSpaceOnUse"><stop stop-color="#11DB86"></stop><stop offset="0.972" stop-color="#064D2F"></stop></linearGradient><linearGradient id="ton-promo-paint20" x1="338.192" x2="325.178" y1="50.634" y2="80.004" gradientUnits="userSpaceOnUse"><stop stop-color="#11DB86"></stop><stop offset="0.972" stop-color="#064D2F"></stop></linearGradient><linearGradient id="ton-promo-paint21" x1="338.192" x2="325.178" y1="50.634" y2="80.004" gradientUnits="userSpaceOnUse"><stop stop-color="#11DB86"></stop><stop offset="0.972" stop-color="#064D2F"></stop></linearGradient><linearGradient id="ton-promo-paint22" x1="326.928" x2="339.58" y1="80.553" y2="50.636" gradientUnits="userSpaceOnUse"><stop stop-color="#28C281"></stop><stop offset="0.353" stop-color="#9CFCD4"></stop><stop offset="0.968" stop-color="#D3FEEC"></stop></linearGradient><linearGradient id="ton-promo-paint23" x1="326.928" x2="339.58" y1="80.553" y2="50.636" gradientUnits="userSpaceOnUse"><stop stop-color="#28C281"></stop><stop offset="0.353" stop-color="#9CFCD4"></stop><stop offset="0.968" stop-color="#D3FEEC"></stop></linearGradient><linearGradient id="ton-promo-paint24" x1="326.928" x2="339.58" y1="80.553" y2="50.636" gradientUnits="userSpaceOnUse"><stop stop-color="#28C281"></stop><stop offset="0.353" stop-color="#9CFCD4"></stop><stop offset="0.968" stop-color="#D3FEEC"></stop></linearGradient><linearGradient id="ton-promo-paint25" x1="315.557" x2="323.192" y1="75.794" y2="56.499" gradientUnits="userSpaceOnUse"><stop stop-color="#17714B"></stop><stop offset="0.481" stop-color="#29B67A"></stop><stop offset="1" stop-color="#77F0BD"></stop></linearGradient><linearGradient id="ton-promo-paint26" x1="315.557" x2="323.192" y1="75.794" y2="56.499" gradientUnits="userSpaceOnUse"><stop stop-color="#17714B"></stop><stop offset="0.481" stop-color="#29B67A"></stop><stop offset="1" stop-color="#77F0BD"></stop></linearGradient><linearGradient id="ton-promo-paint27" x1="315.557" x2="323.192" y1="75.794" y2="56.499" gradientUnits="userSpaceOnUse"><stop stop-color="#17714B"></stop><stop offset="0.481" stop-color="#29B67A"></stop><stop offset="1" stop-color="#77F0BD"></stop></linearGradient><linearGradient id="ton-promo-paint28" x1="341.879" x2="333.413" y1="45.379" y2="69.615" gradientUnits="userSpaceOnUse"><stop stop-color="#11DB86"></stop><stop offset="0.972" stop-color="#146442"></stop></linearGradient><linearGradient id="ton-promo-paint29" x1="323.953" x2="338.579" y1="65.59" y2="47.502" gradientUnits="userSpaceOnUse"><stop stop-color="#D98819"></stop><stop offset="0.368" stop-color="#F9C23A"></stop><stop offset="1" stop-color="#FFFFD0"></stop></linearGradient><linearGradient id="ton-promo-paint30" x1="324.932" x2="339.546" y1="62.608" y2="39.969" gradientUnits="userSpaceOnUse"><stop stop-color="#C27611"></stop><stop offset="0.495" stop-color="#FFB029"></stop><stop offset="1" stop-color="#FEF1BD"></stop></linearGradient><linearGradient id="ton-promo-paint31" x1="330.375" x2="344.905" y1="79.118" y2="51.695" gradientUnits="userSpaceOnUse"><stop stop-color="#28C281"></stop><stop offset="0.353" stop-color="#9CFCD4"></stop><stop offset="0.968" stop-color="#D3FEEC"></stop></linearGradient><linearGradient id="ton-promo-paint32" x1="330.375" x2="344.905" y1="79.118" y2="51.695" gradientUnits="userSpaceOnUse"><stop stop-color="#28C281"></stop><stop offset="0.353" stop-color="#9CFCD4"></stop><stop offset="0.968" stop-color="#D3FEEC"></stop></linearGradient><linearGradient id="ton-promo-paint33" x1="330.375" x2="344.905" y1="79.118" y2="51.695" gradientUnits="userSpaceOnUse"><stop stop-color="#28C281"></stop><stop offset="0.353" stop-color="#9CFCD4"></stop><stop offset="0.968" stop-color="#D3FEEC"></stop></linearGradient><linearGradient id="ton-promo-paint34" x1="323.931" x2="332.458" y1="66.52" y2="43.654" gradientUnits="userSpaceOnUse"><stop stop-color="#17714B"></stop><stop offset="0.481" stop-color="#29B67A"></stop><stop offset="1" stop-color="#77F0BD"></stop></linearGradient><linearGradient id="ton-promo-paint35" x1="323.931" x2="332.458" y1="66.52" y2="43.654" gradientUnits="userSpaceOnUse"><stop stop-color="#17714B"></stop><stop offset="0.481" stop-color="#29B67A"></stop><stop offset="1" stop-color="#77F0BD"></stop></linearGradient><linearGradient id="ton-promo-paint36" x1="323.931" x2="332.458" y1="66.52" y2="43.654" gradientUnits="userSpaceOnUse"><stop stop-color="#17714B"></stop><stop offset="0.481" stop-color="#29B67A"></stop><stop offset="1" stop-color="#77F0BD"></stop></linearGradient><clipPath id="ton-promo-clip0"><path fill="#fff" d="m284.31 20.186 46.8 12.54-14.495 54.091-46.799-12.54z"></path></clipPath></defs><path fill="#fff" d="M265.116 78.205c-.54-.777-1.758-.44-1.819.505l-.269 4.108a1 1 0 0 1-.397.735l-3.287 2.469c-.727.546-.406 1.7.499 1.794l4.089.42a1 1 0 0 1 .719.424L267 92.04c.54.778 1.757.44 1.819-.505l.269-4.108a1 1 0 0 1 .397-.734l3.286-2.469c.727-.546.406-1.701-.498-1.794l-4.089-.42a1 1 0 0 1-.719-.424z"></path><path fill="#fff" d="M244.323 74.359a.541.541 0 0 0-.716.73l.986 1.999a.54.54 0 0 1 .013.452l-.873 2.048a.542.542 0 0 0 .72.706l2.031-.91a.54.54 0 0 1 .452.004l2.017.95a.542.542 0 0 0 .717-.73l-.987-2a.54.54 0 0 1-.012-.451l.873-2.048a.542.542 0 0 0-.72-.706l-2.032.91a.54.54 0 0 1-.452-.005z"></path><path fill="#fff" d="M311.781 22.552c.587.276 1.194-.341.907-.923l-1.249-2.53a.68.68 0 0 1-.015-.572l1.104-2.592a.686.686 0 0 0-.911-.894l-2.571 1.152a.7.7 0 0 1-.572-.006l-2.552-1.201c-.587-.276-1.194.341-.907.923l1.248 2.53a.68.68 0 0 1 .016.572l-1.104 2.592a.685.685 0 0 0 .91.894l2.571-1.152a.7.7 0 0 1 .572.006z"></path><path fill="#fff" d="M360.551 53.009a.484.484 0 0 0 .64-.653l-.882-1.787a.5.5 0 0 1-.011-.404l.78-1.83a.484.484 0 0 0-.643-.632l-1.816.814a.48.48 0 0 1-.404-.004l-1.803-.849a.484.484 0 0 0-.64.653l.881 1.787a.48.48 0 0 1 .012.404l-.781 1.83a.485.485 0 0 0 .644.632l1.815-.814a.48.48 0 0 1 .404.004z" opacity="0.6"></path><path fill="url(#ton-promo-paint0)" d="m270.834 33.26.235.064-11.494 31.41-4.808.427 2.912 3.604 12.612 3.38 16.838-46.033-3.208-3.958-3.739 2.096-5.313-1.423-15.27 4.848-6.97 6.34 3.207 3.953z"></path><path fill="#055939" d="m255.838 66.077 11.34 2.628 3.465 3.366-12.339-3.02z" opacity="0.7"></path><path fill="url(#ton-promo-paint1)" d="m255.729 37.901-3.375-4.326c.886-1.628 13.323-5.204 15.323-5.334 5.82-.38 3.923 6.088 4.174 7.797-5.755-1.933-13.612.736-16.122 1.863"></path><path stroke="url(#ton-promo-paint2)" stroke-linecap="round" stroke-linejoin="round" stroke-width="1.382" d="m258.364 68.948 11.919 3.194 16.846-46.037-3.209-3.958-31.291 11.868 3.207 3.953 14.998-4.707.234.063-11.5 31.408"></path><path stroke="#08482D" stroke-linecap="round" stroke-linejoin="round" stroke-width="1.382" d="m270.258 72.149-12.563-3.366-2.938-3.63 4.812-.422"></path><path fill="url(#ton-promo-paint3)" d="m254.754 65.153 13.229-36.192-.234-.063-14.998 4.707 3.762-10.292 15.271-4.849 12.26 3.285-17.064 46.68z"></path><mask id="ton-promo-mask0" width="33" height="51" x="252" y="18" maskUnits="userSpaceOnUse" style="mask-type: alpha;"><path fill="url(#ton-promo-paint4)" d="m254.636 65.475 13.347-36.513-.234-.063-14.998 4.707 3.762-10.292 15.27-4.849 12.261 3.285-17.181 47z"></path></mask><g mask="url(#ton-promo-mask0)"><path fill="url(#ton-promo-paint5)" d="m291.511 30.647-45.592 32.428-1.365-1.919-1.366-1.92L288.78 26.81z"></path></g><path stroke="url(#ton-promo-paint6)" stroke-linejoin="round" stroke-width="1.382" d="m254.761 65.155 13.094-35.787-.235-.063-14.998 4.708 3.763-10.293 15.27-4.849 12.26 3.285-8.59 23.5-4.16 11.346-4.178 11.43z"></path><path stroke="#136241" stroke-linecap="round" stroke-linejoin="round" stroke-width="1.382" d="m271.158 57-4.178 11.43-12.226-3.276 6.556-17.936"></path><path stroke="#AFFBDB" stroke-linecap="round" stroke-linejoin="round" stroke-width="1.382" d="m281.767 28.032 2.148-5.875-12.26-3.285-7.635 2.424"></path><g clip-path="url(#ton-promo-clip0)"><path fill="url(#ton-promo-paint7)" d="M294.212 80.044q-6.075-1.628-10.043-4.56-3.956-2.962-5.405-6.735-1.416-3.764.075-7.841l.023-.065q1.139-3.114 3.505-5.124 2.41-2.033 5.583-2.875 3.183-.874 6.696-.568l.083-.224q-3.953-2.082-5.696-5.545-1.73-3.495-.346-7.284l.023-.064q1.338-3.66 4.716-5.857 3.422-2.22 8.213-2.735 4.792-.512 10.307.964 5.514 1.478 9.109 4.239 3.627 2.77 4.928 6.255 1.311 3.454-.027 7.114l-.023.064q-1.385 3.789-5.135 5.815-3.739 1.995-8.371 1.776l-.082.225q3.135 1.44 5.169 3.711 2.033 2.273 2.627 5.11.606 2.807-.533 5.921l-.023.064q-1.491 4.078-5.193 6.47-3.669 2.4-8.893 2.905-5.21.471-11.287-1.156m2.969-8.123q2.246.6 4.256.259 2.055-.366 3.541-1.554a6.6 6.6 0 0 0 2.188-3.01l.023-.064q.669-1.83.228-3.5-.43-1.7-1.874-3.004-1.413-1.294-3.691-1.906-2.278-.61-4.333-.244-2.022.374-3.508 1.563-1.474 1.156-2.143 2.986l-.023.064q-.669 1.83-.24 3.532.462 1.71 1.875 3.005 1.457 1.271 3.701 1.873m7.617-20.837q1.982.531 3.725.222 1.757-.34 3.084-1.394 1.34-1.086 1.962-2.788l.023-.064q.623-1.702.222-3.184-.39-1.514-1.65-2.628-1.228-1.104-3.176-1.626-1.915-.513-3.692-.214t-3.105 1.354q-1.317 1.022-1.938 2.723l-.024.065q-.622 1.701-.245 3.248.39 1.515 1.605 2.65 1.261 1.114 3.209 1.636"></path><path fill="url(#ton-promo-paint8)" d="M301.215 41.513c-1.126 2.701-.969 4.752-.75 5.44-4.727 1.426-4.48-4.14-3.777-6.828z" opacity="0.77"></path><path fill="url(#ton-promo-paint9)" d="M292.434 61.497c-1.126 2.7-.969 4.752-.75 5.44-4.727 1.425-4.479-4.14-3.777-6.829z" opacity="0.77"></path><path fill="url(#ton-promo-paint10)" d="M296.161 54.7c-2.853-.49-6.435 2.326-7.125 3.256l4.782 3.382c3.811-4.395 8.233-2.14 8.806-1.8.962-2.655-2.896-4.227-6.463-4.839" opacity="0.77"></path><path fill="url(#ton-promo-paint11)" d="M304.007 35.19c-2.854-.49-6.72 2.992-7.411 3.922l4.255 2.942c3.811-4.395 8.233-2.139 8.805-1.799.963-2.655-2.083-4.453-5.649-5.065" opacity="0.6"></path><path fill="url(#ton-promo-paint12)" d="M310.015 52.98c3.515-.418 7.989-1.883 11.526-7.556l4.445 3.142c.39 3.412-6.363 8.915-14.053 7.825-6.491-.921-15.168-4.653-15.064-6.934 6.141 2.062 9.63 3.94 13.146 3.522" opacity="0.82"></path><path fill="url(#ton-promo-paint13)" d="m312.679 68.27 6.617 2.58c.235 3.658-9.039 13.12-21.398 9.81-6.333-1.698-15.902-5.153-15.798-7.435 6.141 2.063 29.317-2.416 30.579-4.954" opacity="0.77"></path><path stroke="url(#ton-promo-paint14)" stroke-linecap="round" stroke-linejoin="round" stroke-width="1.382" d="M313.958 56.511c1.649 1.486 5.193 5.433 6.184 9.33.404 1.871.195 3.96-.563 6.036l-.024.064q-1.491 4.077-5.193 6.47-3.669 2.4-8.892 2.904c-3.475.315-7.206-.185-11.257-1.27-4.05-1.086-7.429-2.49-10.074-4.445-2.637-1.976-6.734-6.404-7.7-8.92-.918-2.442 3.883-9.222 5.929-10.96q2.41-2.034 5.583-2.875 3.183-.874 6.697-.568l.082-.225c-2.635-1.387-3.949-3.123-5.111-5.432-1.155-2.33-1.854-4.87-.931-7.396l.024-.064q1.338-3.66 4.715-5.858 3.422-2.22 8.214-2.734c3.194-.343 5.534-3.058 9.21-2.073 4.682 1.255 12.054 5.424 15.133 13.53q1.311 3.455-.027 7.115l-.023.064q-1.385 3.788-5.135 5.815-2.994 1.598-6.561 1.775m-17.086 15.242q2.245.602 4.255.26 2.056-.367 3.541-1.555a6.6 6.6 0 0 0 2.188-3.01l.024-.063c.445-1.22.552-2.502.258-3.615q-.43-1.7-1.874-3.004-1.412-1.296-3.69-1.906t-4.334-.245q-2.022.375-3.508 1.563c-.982.771-1.727 1.881-2.173 3.101l-.024.065q-.67 1.83-.239 3.531.462 1.71 1.874 3.005 1.456 1.272 3.702 1.873m7.647-20.952q1.981.532 3.726.223 1.755-.34 3.083-1.394 1.34-1.087 1.962-2.788l.024-.065q.621-1.701.221-3.183-.39-1.515-1.65-2.628-1.227-1.104-3.176-1.626-1.915-.514-3.692-.214t-3.105 1.353q-1.316 1.023-1.938 2.724l-.024.064q-.621 1.702-.244 3.248.389 1.514 1.605 2.651 1.26 1.113 3.208 1.636"></path><path stroke="#08482D" stroke-linecap="round" stroke-linejoin="round" stroke-width="1.382" d="M276.439 66.68c.966 2.516 5.062 6.944 7.7 8.92 2.645 1.954 6.023 3.359 10.074 4.444 4.05 1.086 7.782 1.586 11.256 1.271m15.329-26.296q-2.994 1.598-6.561 1.775m-8.694 4.255q-1.412-1.296-3.69-1.906t-4.334-.245q-2.022.375-3.507 1.563m8.179-19.699q1.329-1.055 3.105-1.353 1.777-.3 3.693.214c.699.215 2.623.924 4.717 2.04"></path><path fill="url(#ton-promo-paint15)" d="M290.739 75.85q-6.076-1.629-10.044-4.56-3.956-2.964-5.404-6.736-1.416-3.764.074-7.84l.024-.065q1.139-3.114 3.504-5.124 2.41-2.034 5.583-2.875 3.184-.874 6.697-.568l.082-.225q-3.952-2.08-5.695-5.544-1.731-3.496-.347-7.284l.024-.064q1.338-3.66 4.715-5.858 3.422-2.22 8.214-2.734t10.306.964 9.109 4.238q3.628 2.77 4.928 6.256 1.31 3.453-.026 7.114l-.024.064q-1.385 3.789-5.135 5.815-3.738 1.995-8.371 1.776l-.082.224q3.135 1.44 5.169 3.712t2.627 5.11q.606 2.807-.532 5.92l-.024.065q-1.491 4.077-5.193 6.47-3.669 2.4-8.892 2.904-5.212.473-11.287-1.156m2.969-8.123q2.245.6 4.256.258 2.055-.364 3.54-1.554a6.6 6.6 0 0 0 2.188-3.009l.024-.064q.668-1.83.227-3.5-.43-1.7-1.874-3.004-1.411-1.296-3.69-1.906t-4.334-.245q-2.022.375-3.508 1.563-1.473 1.157-2.142 2.987l-.024.064q-.67 1.83-.239 3.531.462 1.71 1.874 3.005 1.457 1.272 3.702 1.874m7.617-20.838q1.98.532 3.725.223 1.755-.34 3.084-1.394 1.34-1.087 1.961-2.788l.024-.065q.621-1.701.221-3.183-.389-1.515-1.65-2.628-1.227-1.104-3.176-1.626-1.914-.514-3.692-.214-1.776.3-3.105 1.353-1.316 1.023-1.938 2.724l-.023.064q-.623 1.702-.245 3.248.389 1.515 1.605 2.651 1.26 1.114 3.209 1.636"></path><mask id="ton-promo-mask1" width="50" height="52" x="274" y="26" maskUnits="userSpaceOnUse" style="mask-type: alpha;"><path fill="url(#ton-promo-paint16)" d="M290.739 75.85q-6.075-1.629-10.043-4.56-3.957-2.964-5.405-6.736-1.416-3.764.075-7.84l.023-.065q1.138-3.114 3.505-5.124 2.41-2.034 5.582-2.875 3.184-.874 6.697-.568l.082-.225q-3.952-2.08-5.695-5.544-1.731-3.496-.346-7.284l.023-.064q1.338-3.66 4.715-5.858 3.422-2.22 8.214-2.734t10.306.964 9.109 4.238q3.629 2.77 4.928 6.256 1.312 3.453-.026 7.114l-.024.064q-1.384 3.789-5.134 5.815-3.74 1.995-8.371 1.776l-.083.224q3.137 1.44 5.169 3.712 2.034 2.272 2.628 5.11.605 2.807-.533 5.92l-.024.065q-1.49 4.077-5.192 6.47-3.67 2.4-8.893 2.904-5.212.473-11.287-1.156m2.969-8.123q2.246.6 4.256.258 2.055-.365 3.541-1.553a6.6 6.6 0 0 0 2.187-3.01l.024-.064q.669-1.83.228-3.5-.43-1.7-1.875-3.004-1.411-1.296-3.69-1.906t-4.333-.245q-2.022.375-3.508 1.563-1.474 1.157-2.143 2.987l-.024.064q-.668 1.83-.239 3.531.462 1.71 1.874 3.005 1.457 1.272 3.702 1.874m7.617-20.838q1.981.532 3.725.223 1.757-.34 3.084-1.394 1.34-1.087 1.962-2.788l.023-.065q.623-1.701.221-3.183-.389-1.515-1.649-2.628-1.228-1.104-3.176-1.626-1.916-.514-3.692-.214-1.778.3-3.105 1.353-1.317 1.023-1.939 2.724l-.023.064q-.622 1.702-.245 3.248.39 1.515 1.605 2.651 1.261 1.114 3.209 1.636"></path></mask><g mask="url(#ton-promo-mask1)"><path fill="url(#ton-promo-paint17)" fill-rule="evenodd" d="m325.146 32.682 1.44 1.873-2.641 1.859-.001-.002-47.909 34.084-2.898-3.73 47.92-34.09.01-.007 2.641-1.858z" clip-rule="evenodd"></path></g><path stroke="url(#ton-promo-paint18)" stroke-linejoin="round" stroke-width="1.382" d="M290.647 76.195q-6.075-1.629-10.043-4.56-3.957-2.963-5.405-6.736-1.416-3.763.075-7.84l.023-.065c.759-2.076 2.02-4.129 3.597-5.469q2.41-2.032 5.583-2.875 3.183-.874 6.696-.567l.083-.225q-3.953-2.081-5.696-5.545-1.73-3.495-.346-7.284l.024-.064q1.337-3.66 4.715-5.857 3.422-2.22 8.214-2.734t10.306.963 9.109 4.239q3.627 2.77 4.928 6.255 1.311 3.454-.027 7.114l-.023.064q-1.385 3.79-5.135 5.816-3.738 1.994-8.371 1.775l-.082.225q3.135 1.44 5.169 3.712t2.627 5.11c.404 1.87.134 4.189-.625 6.265l-.024.064q-1.49 4.077-5.192 6.47-3.67 2.4-8.893 2.905-5.212.471-11.287-1.156Zm2.969-8.123q2.246.6 4.256.259 2.055-.366 3.541-1.554a6.6 6.6 0 0 0 2.187-3.01l.024-.064c.446-1.22.614-2.731.32-3.844q-.43-1.701-1.874-3.005-1.412-1.294-3.69-1.905-2.279-.61-4.334-.245-2.022.374-3.508 1.563c-.982.77-1.789 2.11-2.235 3.33l-.023.065q-.669 1.83-.24 3.531.462 1.71 1.874 3.005 1.457 1.272 3.702 1.874Zm7.709-21.182q1.982.53 3.726.223 1.755-.34 3.083-1.395 1.34-1.086 1.962-2.788l.024-.064q.621-1.701.221-3.184-.39-1.514-1.65-2.627-1.227-1.105-3.176-1.627-1.915-.513-3.692-.214t-3.105 1.354q-1.316 1.022-1.938 2.724l-.024.064q-.621 1.701-.244 3.248.389 1.515 1.605 2.65 1.26 1.114 3.208 1.636Z"></path><path stroke="#AFFBDB" stroke-linecap="round" stroke-linejoin="round" stroke-width="1.382" d="M298.171 26.375q4.791-.514 10.306.963t9.109 4.239q3.628 2.77 4.928 6.256 1.311 3.453-.027 7.113l-.023.064m-13.588 7.816q3.135 1.44 5.169 3.712t2.627 5.11c.404 1.87.134 4.189-.625 6.265l-.023.064"></path><path stroke="#136241" stroke-linecap="round" stroke-linejoin="round" stroke-width="1.382" d="m275.297 56.994-.023.064q-1.491 4.078-.075 7.841 1.449 3.772 5.405 6.736 3.968 2.931 10.043 4.56 6.075 1.627 11.287 1.156m-4.062-9.02q-2.01.342-4.256-.26-2.245-.6-3.702-1.873-1.412-1.295-1.874-3.005-.429-1.701.24-3.531l.023-.064"></path><path stroke="#136241" stroke-linecap="round" stroke-linejoin="round" stroke-width="1.382" d="M291.261 47.86q-3.952-2.082-5.695-5.545"></path></g><path stroke="url(#ton-promo-paint19)" stroke-linecap="round" stroke-linejoin="round" stroke-width="1.382" d="m338.422 68.175.677 6.317.154.042 4.732-4.834 2.786.763-7.311 7.128-1.805 4.95-2.572-.706 1.804-4.95-1.25-9.473z"></path><path stroke="url(#ton-promo-paint20)" stroke-linecap="round" stroke-linejoin="round" stroke-width="1.382" d="M330.745 66.07q1.296.355 2.059 1.191.767.826.932 1.993.174 1.17-.322 2.528l-.006.019q-.5 1.368-1.416 2.238-.908.872-2.083 1.166t-2.471-.061l-2.496-.684-1.523 4.178-2.573-.705 4.831-13.252zm-5.012 6.223 1.865.512q1.108.303 1.942-.135.847-.445 1.258-1.575l.007-.018q.411-1.13.011-1.906-.393-.774-1.501-1.078l-1.865-.51z" clip-rule="evenodd"></path><path stroke="url(#ton-promo-paint21)" stroke-linecap="round" stroke-linejoin="round" stroke-width="1.382" d="m319.754 63.058-.554 14.424-2.709-.743.263-3.463-4.34-1.19-2.082 2.965-2.701-.74 9.099-12.082zm-5.995 7.114 3.165.868.434-5.73-.153-.041z" clip-rule="evenodd"></path><path fill="url(#ton-promo-paint22)" d="m337.914 67.239.677 6.316.154.042 4.732-4.834 2.786.764-7.311 7.127-1.805 4.95-2.573-.705 1.805-4.95-1.25-9.474z"></path><path fill="url(#ton-promo-paint23)" fill-rule="evenodd" d="M330.229 65.132q1.295.355 2.059 1.191.767.826.932 1.993.173 1.169-.322 2.528l-.007.018q-.498 1.369-1.415 2.239a4.57 4.57 0 0 1-2.084 1.166q-1.175.293-2.47-.061l-2.496-.684-1.523 4.178-2.573-.705 4.831-13.252zm-5.013 6.222 1.866.512q1.108.303 1.942-.135.846-.444 1.258-1.574l.006-.019q.413-1.13.011-1.906-.392-.774-1.5-1.077l-1.865-.512z" clip-rule="evenodd"></path><path fill="url(#ton-promo-paint24)" fill-rule="evenodd" d="m319.245 62.121-.554 14.424-2.71-.742.263-3.464-4.339-1.189-2.083 2.964-2.7-.74 9.099-12.082zm-5.995 7.115 3.164.867.435-5.73-.153-.041z" clip-rule="evenodd"></path><path stroke="url(#ton-promo-paint25)" stroke-linejoin="round" stroke-width="1.382" d="m337.914 67.239.677 6.316.154.042 4.732-4.834 2.786.764-7.311 7.127-1.805 4.95-2.573-.705 1.805-4.95-1.25-9.474z"></path><path stroke="url(#ton-promo-paint26)" stroke-linejoin="round" stroke-width="1.382" d="M330.229 65.132q1.295.355 2.059 1.191.767.826.932 1.993.173 1.169-.322 2.528l-.007.018q-.498 1.369-1.415 2.239a4.57 4.57 0 0 1-2.084 1.166q-1.175.293-2.47-.061l-2.496-.684-1.523 4.178-2.573-.705 4.831-13.252zm-5.013 6.222 1.866.512q1.108.303 1.942-.135.846-.444 1.258-1.574l.006-.019q.413-1.13.011-1.906-.392-.774-1.5-1.077l-1.865-.512z" clip-rule="evenodd"></path><path stroke="url(#ton-promo-paint27)" stroke-linejoin="round" stroke-width="1.382" d="m319.245 62.121-.554 14.424-2.71-.742.263-3.464-4.339-1.189-2.083 2.964-2.7-.74 9.099-12.082zm-5.995 7.115 3.164.867.435-5.73-.153-.041z" clip-rule="evenodd"></path><path stroke="#AFFBDB" stroke-linecap="round" stroke-linejoin="round" stroke-width="1.382" d="m337.908 67.237-2.785-.763m8.349 2.288 2.785.764-3.655 3.564m-12.371-7.957q1.294.354 2.058 1.19.768.827.932 1.993" opacity="0.75"></path><path stroke="#136241" stroke-linecap="round" stroke-linejoin="round" stroke-width="1.382" d="m336.373 75.949-1.804 4.95 2.573.704.902-2.474m-11.12-4.922-2.497-.685-1.523 4.179-2.573-.705m-4.354-1.194.262-3.463-4.339-1.19-2.083 2.965-2.7-.74"></path><path fill="url(#ton-promo-paint28)" d="m339.675 53.873.197-.663zm2.024 1.24-.524.45.002.004zm.897 2.096-.686.083.001.008zm-.311 2.727.649.236.01-.028zm-.004.01-.65-.235-.009.027zm-1.319 2.428-.513-.463-.003.004zm-1.959 1.26.186.665h.002zm-2.394-.074-.197.663zm-2.024-1.24-.526.448.005.005zm-.903-2.11-.685.088zm.311-2.727.659.208.008-.027zm.004-.012-.659-.208-.008.027zm1.319-2.426.511.465.002-.002zm1.967-1.245-.183-.667zm4.397-7.104.452.522a.69.69 0 0 0-.255-1.184zm-15.534 13.461-.197.663a.69.69 0 0 0 .65-.14zm-3.216-.956-.453-.523a.693.693 0 0 0 .256 1.185zm15.533-13.461.197-.663a.69.69 0 0 0-.649.14zm.485 10.435.197-.662zm-1.126.366.495.483.003-.004zm-.919 1.794.649.236.01-.027zm-.004.011-.65-.235-.009.027zm-.279 1.997-.683.105v.005zm.718.916-.196.662zm1.125-.368-.501-.475-.003.003zm.924-1.805-.65-.236-.009.027zm.004-.011.649.236.01-.028zm.276-1.986-.684.101.002.014zm-11.48-14.702.197-.662zm2.024 1.241-.524.45.002.003zm.897 2.097-.686.082.001.009zm-.312 2.726.65.236.009-.027zm-.004.011-.649-.236-.009.028zm-1.319 2.427-.513-.464-.004.004zm-1.958 1.259.186.665h.002zm-2.394-.072-.197.662zm-2.024-1.241-.526.448.004.005zm-.904-2.11-.686.088zm.312-2.727.659.209.008-.028zm.003-.011-.659-.209-.008.028zm1.32-2.428.511.466.002-.002zm1.965-1.244-.183-.666zm1.666 2.374.197-.662zm-1.125.367.495.483.003-.004zm-.921 1.795-.658-.209-.008.028zm-.003.011.659.209.008-.028zm-.28 1.996-.683.105.001.005zm.719.916-.197.662zm1.125-.367-.502-.476-.002.003zm.923-1.806-.649-.236-.01.028zm.004-.01.65.235.009-.027zm.276-1.986-.683.1.002.015zm11.498 8.268-.197.662c.755.225 1.307.575 1.697 1.029l.524-.45.524-.45c-.593-.69-1.39-1.168-2.351-1.454zm2.024 1.24-.522.454c.4.46.649 1.027.733 1.725l.686-.083.686-.083c-.114-.947-.464-1.778-1.061-2.465zm.897 2.096-.685.091c.092.694.009 1.499-.285 2.427l.659.209.659.208c.339-1.071.463-2.085.337-3.026zm-.311 2.727-.65-.236-.004.01.65.237.649.236.004-.011zm-.004.01-.659-.208c-.291.92-.688 1.636-1.173 2.173l.513.463.512.464c.646-.714 1.129-1.618 1.466-2.683zm-1.319 2.428-.516-.46c-.479.538-1.021.881-1.632 1.055l.189.664.188.665c.884-.25 1.649-.747 2.287-1.464zm-1.959 1.26-.186-.666c-.593.166-1.256.154-2.011-.07l-.197.662-.197.663c.961.285 1.894.323 2.777.076zm-2.394-.074.197-.662c-.746-.222-1.3-.572-1.699-1.032l-.522.453-.521.454c.598.688 1.393 1.166 2.348 1.45zm-2.024-1.24.526-.449c-.401-.47-.653-1.046-.744-1.75l-.685.088-.685.089c.122.945.472 1.777 1.062 2.47zm-.903-2.11.685-.09c-.09-.703-.006-1.509.285-2.429l-.659-.208-.658-.209c-.337 1.065-.46 2.077-.338 3.024zm.311-2.727.667.18.003-.01-.666-.182-.667-.18-.003.01zm.004-.012.658.209c.294-.928.691-1.642 1.172-2.17l-.511-.465-.511-.466c-.645.708-1.128 1.612-1.467 2.684zm1.319-2.426.513.463c.485-.537 1.03-.875 1.636-1.042l-.182-.666-.183-.667c-.884.243-1.651.735-2.296 1.448zm1.967-1.245.182.666c.603-.165 1.268-.152 2.013.07l.197-.663.197-.663c-.955-.284-1.885-.32-2.772-.077zm4.397-7.104-.453-.522-15.533 13.46.452.523.453.523 15.533-13.462zm-15.534 13.461.197-.662-3.216-.957-.197.663-.197.662 3.216.957zm-3.216-.956.452.522 15.534-13.461-.453-.522-.452-.523-15.534 13.462zm15.533-13.461-.197.662 3.217.957.197-.663.197-.662-3.217-.957zm.485 10.435.197-.663c-.704-.209-1.336.046-1.821.55l.498.479.498.479c.215-.223.334-.212.431-.183zm-1.126.366-.494-.482c-.461.472-.807 1.194-1.084 2.068l.659.208.659.209c.255-.805.521-1.28.755-1.52zm-.919 1.794-.65-.235-.004.01.65.236.649.236.004-.01zm-.004.011-.659-.208c-.275.87-.404 1.656-.303 2.31l.683-.105.683-.105c-.053-.344.004-.89.255-1.683zm-.279 1.997-.683.11c.054.33.168.647.378.914.215.274.5.457.827.554l.196-.662.197-.663a.24.24 0 0 1-.133-.082.6.6 0 0 1-.1-.28zm.718.916-.196.662c.327.098.667.102.998-.007.324-.105.598-.305.828-.55l-.505-.473-.504-.472a.6.6 0 0 1-.248.182.3.3 0 0 1-.176-.005zm1.125-.368.502.476c.458-.483.805-1.202 1.081-2.073l-.659-.208-.659-.209c-.251.793-.52 1.28-.766 1.539zm.924-1.805.649.236.004-.011-.649-.236-.65-.236-.004.011zm.004-.011.659.208c.276-.873.407-1.662.298-2.308l-.681.114-.682.115c.054.321.002.857-.253 1.662zm.276-1.986.684-.1a1.9 1.9 0 0 0-.375-.922 1.63 1.63 0 0 0-.831-.554l-.197.662-.198.662c.081.024.117.055.14.084.027.036.07.112.093.27zm-11.48-14.702-.197.663c.754.224 1.307.575 1.697 1.029l.524-.45.524-.451c-.593-.69-1.39-1.167-2.351-1.453zm2.024 1.241-.522.453c.4.46.648 1.027.733 1.726l.686-.082.686-.083c-.114-.947-.464-1.779-1.061-2.467zm.897 2.097-.685.09c.092.694.008 1.499-.285 2.428l.658.208.659.209c.339-1.072.463-2.085.338-3.027zm-.312 2.726-.649-.236-.004.011.649.236.65.236.004-.011zm-.004.011-.658-.208c-.291.919-.688 1.634-1.174 2.171l.513.464.512.463c.646-.714 1.129-1.616 1.466-2.681zm-1.319 2.427-.517-.46c-.478.538-1.02.881-1.63 1.054l.189.665.188.665c.885-.251 1.648-.748 2.286-1.465zm-1.958 1.259-.187-.666c-.593.166-1.256.156-2.01-.069l-.197.663-.197.662c.961.286 1.894.323 2.777.075zm-2.394-.072.197-.663c-.746-.221-1.3-.572-1.699-1.031l-.522.453-.522.453c.598.69 1.394 1.166 2.349 1.45zm-2.024-1.241.526-.448c-.402-.471-.654-1.047-.745-1.751l-.685.088-.686.089c.122.946.473 1.778 1.064 2.47zm-.904-2.11.685-.089c-.091-.703-.005-1.509.286-2.43l-.659-.208-.659-.208c-.337 1.064-.461 2.076-.339 3.023zm.312-2.727.667.181.003-.011-.667-.181-.667-.181-.003.011zm.003-.011.659.208c.294-.928.691-1.642 1.172-2.17l-.511-.466-.511-.465c-.645.708-1.129 1.612-1.468 2.684zm1.32-2.428.513.464c.485-.537 1.029-.875 1.635-1.042l-.183-.666-.183-.666c-.883.242-1.649.733-2.295 1.447zm1.965-1.244.183.666c.603-.165 1.269-.153 2.014.069l.197-.663.197-.662c-.956-.284-1.887-.32-2.774-.076zm1.666 2.374.197-.662c-.705-.21-1.337.048-1.82.55l.498.48.498.478c.216-.224.334-.212.43-.183zm-1.125.367-.495-.482c-.46.472-.807 1.193-1.084 2.068l.658.209.659.208c.255-.804.522-1.28.757-1.52zm-.921 1.795-.666-.181-.004.01.667.182.667.181.003-.011zm-.003.011-.658-.209c-.276.87-.405 1.656-.305 2.31l.683-.105.683-.105c-.052-.343.005-.888.256-1.682zm-.28 1.996-.682.11c.053.33.168.647.378.914.215.274.5.457.826.554l.197-.662.197-.662a.24.24 0 0 1-.133-.083.6.6 0 0 1-.1-.28zm.719.916-.197.663c.328.097.667.101.999-.007.324-.106.598-.306.827-.551l-.504-.472-.504-.473a.6.6 0 0 1-.249.182.3.3 0 0 1-.175-.004zm1.125-.367.501.475c.458-.483.806-1.201 1.081-2.072l-.659-.209-.659-.208c-.251.793-.519 1.278-.766 1.538zm.923-1.806.65.236.004-.011-.65-.236-.649-.236-.004.011zm.004-.01.659.208c.277-.874.408-1.663.299-2.31l-.682.116-.681.115c.054.32.002.856-.253 1.662zm.276-1.986.684-.1a1.93 1.93 0 0 0-.373-.923 1.63 1.63 0 0 0-.832-.555l-.197.662-.197.663c.08.023.115.054.138.084a.6.6 0 0 1 .094.27z"></path><path fill="url(#ton-promo-paint29)" fill-rule="evenodd" d="M339.151 53.15q1.286.384 2.023 1.242.748.86.898 2.095.163 1.226-.312 2.727l-.004.01q-.47 1.49-1.319 2.428-.837.941-1.959 1.26-1.107.309-2.393-.074-1.277-.38-2.024-1.24-.744-.874-.904-2.11-.159-1.239.312-2.727l.003-.012q.475-1.5 1.32-2.426.848-.938 1.966-1.245 1.117-.306 2.393.073m2.004-7.175-15.533 13.46-3.217-.956 15.534-13.46zm-2.733 9.478q-.6-.18-1.124.366-.522.535-.92 1.794l-.004.011q-.394 1.248-.28 1.997.119.736.719.915.611.183 1.126-.367.528-.557.923-1.804l.003-.013q.399-1.26.276-1.985-.108-.733-.719-.914m-10.76-13.787q1.287.383 2.024 1.241.749.861.897 2.096.163 1.226-.311 2.726l-.004.011q-.471 1.49-1.319 2.428-.839.94-1.959 1.259-1.107.31-2.394-.073-1.275-.38-2.024-1.241-.744-.873-.903-2.11t.311-2.727l.003-.011q.476-1.5 1.32-2.427.849-.938 1.966-1.245 1.118-.306 2.393.073m-.728 2.302q-.6-.178-1.125.366-.52.535-.92 1.795l-.003.011q-.395 1.248-.28 1.996.118.737.718.916.613.182 1.126-.367.528-.557.923-1.805l.004-.012q.398-1.26.276-1.985-.108-.734-.719-.915" clip-rule="evenodd"></path><path fill="url(#ton-promo-paint30)" d="m339.151 53.15.194-.652zm2.023 1.242-.516.444.002.002zm.898 2.095-.677.082.001.008zm-.312 2.727.641.232.009-.027zm-.004.01-.64-.232-.009.027zm-1.319 2.428-.505-.457-.004.004zm-1.959 1.26.184.656.002-.001zm-2.393-.074-.195.653h.001zm-2.024-1.24-.519.441.004.005zm-.904-2.11-.675.086zm.312-2.727.649.205.008-.027zm.003-.012-.65-.205-.008.027zm1.32-2.426.503.459.002-.002zm1.966-1.245-.18-.657zm4.397-7.103.446.515a.682.682 0 0 0-.252-1.168zm-15.533 13.46-.195.653a.68.68 0 0 0 .641-.138zm-3.217-.956-.446-.515a.682.682 0 0 0 .252 1.168zm15.534-13.46.194-.653a.68.68 0 0 0-.641.138zm.483 10.434.195-.654h-.001zm-1.124.366.487.476.004-.004zm-.92 1.794.641.233.009-.027zm-.004.011-.64-.232-.009.027zm-.28 1.997-.673.103.001.005zm.719.915-.194.654zm1.126-.367-.495-.468-.003.003zm.923-1.804.649.205.008-.027zm.003-.013-.649-.205-.008.027zm.276-1.985-.674.1.002.014zm-11.479-14.7.194-.654zm2.024 1.24-.517.444.003.003zm.897 2.096-.676.081.001.008zm-.311 2.726.64.233.009-.027zm-.004.011-.641-.232-.009.027zm-1.319 2.428-.506-.457-.003.004zm-1.959 1.259.183.656h.003zm-2.394-.073-.194.653zm-2.024-1.241-.518.442.004.005zm-.903-2.11-.676.087zm.311-2.727.65.206.008-.027zm.003-.011-.649-.206-.008.027zm1.32-2.427.504.46.002-.003zm1.966-1.245-.18-.657zm1.665 2.375.194-.653zm-1.125.366.488.476.003-.003zm-.92 1.795-.65-.206-.008.027zm-.003.011.649.206.008-.027zm-.28 1.996-.674.104.001.005zm.718.916-.194.653zm1.126-.367-.494-.469-.003.003zm.923-1.805.65.206.008-.027zm.004-.012-.65-.206-.008.028zm.276-1.985-.674.1.002.013zm11.498 8.268-.195.653c.756.225 1.31.576 1.702 1.032l.516-.444.517-.444c-.591-.689-1.387-1.165-2.346-1.45zm2.023 1.24-.514.447c.401.463.651 1.03.735 1.73l.677-.081.676-.082c-.114-.945-.464-1.774-1.059-2.46zm.898 2.096-.676.09c.093.695.009 1.502-.285 2.431l.649.206.65.205c.339-1.07.462-2.082.337-3.022zm-.312 2.727-.64-.233-.004.011.64.233.641.232.004-.01zm-.004.01-.649-.205c-.292.921-.689 1.639-1.175 2.176l.505.457.506.457c.644-.713 1.126-1.615 1.463-2.679zm-1.319 2.428-.509-.453c-.479.539-1.023.883-1.636 1.057l.186.655.186.656c.882-.25 1.645-.746 2.282-1.462zm-1.959 1.26-.183-.657c-.595.167-1.26.155-2.016-.07l-.194.653-.194.653c.959.285 1.89.323 2.771.077zm-2.393-.074.194-.653c-.748-.222-1.304-.573-1.704-1.034l-.514.446-.515.447c.597.688 1.391 1.164 2.344 1.447zm-2.024-1.24.518-.443c-.402-.472-.655-1.049-.746-1.755l-.676.087-.675.087c.121.944.471 1.774 1.06 2.465zm-.904-2.11.676-.088c-.091-.705-.006-1.513.285-2.434l-.649-.205-.65-.206c-.336 1.064-.459 2.075-.337 3.02zm.312-2.727.657.178.003-.011-.657-.179-.658-.178-.003.011zm.003-.012.649.206c.294-.93.692-1.644 1.174-2.173l-.503-.46-.504-.458c-.644.706-1.127 1.609-1.466 2.68zm1.32-2.426.505.457c.487-.538 1.033-.878 1.641-1.045l-.18-.657-.18-.657c-.882.242-1.647.733-2.292 1.445zm1.966-1.245.18.657c.605-.166 1.272-.153 2.018.069l.195-.653.194-.653c-.954-.284-1.882-.32-2.767-.077zm4.397-7.103-.446-.515-15.534 13.46.447.515.446.515 15.533-13.46zm-15.533 13.46.194-.653-3.217-.956-.194.653-.194.653 3.216.956zm-3.217-.956.446.515 15.534-13.46-.446-.515-.447-.515-15.533 13.46zm15.534-13.46-.195.653 3.217.956.194-.653.194-.653-3.216-.956zm.483 10.434.194-.654c-.699-.207-1.327.046-1.809.548l.491.472.491.472c.217-.225.339-.215.439-.185zm-1.124.366-.488-.476c-.459.47-.805 1.191-1.081 2.065l.649.205.65.206c.255-.806.522-1.283.757-1.524zm-.92 1.794-.64-.232-.004.01.64.233.641.233.004-.011zm-.004.011-.649-.205c-.275.869-.404 1.653-.304 2.305l.673-.103.674-.104c-.053-.345.004-.892.256-1.687zm-.28 1.997-.672.108c.052.328.167.644.375.91.214.272.497.454.822.55l.194-.653.194-.652a.25.25 0 0 1-.138-.086.6.6 0 0 1-.102-.285zm.719.915-.194.654c.325.096.663.1.992-.007a2 2 0 0 0 .825-.548l-.497-.466-.498-.465a.64.64 0 0 1-.252.184.3.3 0 0 1-.182-.005zm1.126-.367.494.469c.456-.481.803-1.198 1.078-2.068l-.649-.205-.65-.206c-.251.793-.52 1.28-.768 1.542zm.923-1.804.657.178.004-.012-.658-.178-.657-.179-.004.012zm.003-.013.65.206c.276-.873.407-1.66.298-2.304l-.672.113-.672.114c.055.322.002.86-.253 1.666zm.276-1.985.674-.1a1.9 1.9 0 0 0-.372-.916 1.6 1.6 0 0 0-.826-.551l-.195.653-.194.652a.27.27 0 0 1 .144.088.6.6 0 0 1 .095.274zm-11.479-14.7-.194.652c.756.225 1.31.576 1.701 1.032l.517-.444.517-.444c-.592-.688-1.387-1.165-2.347-1.45zm2.024 1.24-.514.447c.401.462.65 1.03.735 1.73l.676-.082.677-.081c-.114-.946-.464-1.775-1.06-2.46zm.897 2.096-.675.09c.092.695.009 1.5-.286 2.43l.65.206.649.206c.339-1.07.463-2.083.338-3.022zm-.311 2.726-.641-.232-.004.01.641.233.64.233.004-.011zm-.004.011-.65-.205c-.291.92-.688 1.638-1.175 2.176l.506.457.505.457c.645-.713 1.127-1.615 1.463-2.68zm-1.319 2.428-.509-.453c-.479.538-1.023.883-1.636 1.056l.186.656.186.655c.882-.25 1.644-.745 2.282-1.461zm-1.959 1.259-.184-.656c-.594.166-1.26.154-2.016-.07l-.194.653-.194.653c.96.285 1.89.323 2.771.076zm-2.394-.073.194-.653c-.747-.223-1.303-.574-1.703-1.035l-.515.447-.514.447c.597.687 1.39 1.163 2.344 1.447zm-2.024-1.241.519-.442c-.403-.472-.655-1.05-.746-1.755l-.676.087-.676.087c.122.944.471 1.774 1.061 2.465zm-.903-2.11.676-.087c-.091-.706-.007-1.513.285-2.434l-.65-.206-.649-.206c-.337 1.065-.46 2.075-.338 3.02zm.311-2.727.658.179.003-.012-.658-.178-.657-.179-.003.011zm.003-.011.65.205c.294-.929.692-1.644 1.174-2.173l-.504-.459-.503-.459c-.644.707-1.127 1.61-1.466 2.68zm1.32-2.427.506.457c.486-.538 1.032-.878 1.641-1.045l-.181-.657-.18-.657c-.881.242-1.647.733-2.291 1.445zm1.966-1.245.181.657c.604-.166 1.271-.153 2.018.07l.194-.654.194-.653c-.953-.283-1.882-.32-2.767-.077zm1.665 2.375.194-.653c-.7-.208-1.327.046-1.81.547l.491.472.491.473c.217-.226.339-.216.44-.186zm-1.125.366-.488-.475c-.458.47-.805 1.19-1.082 2.064l.65.206.649.205c.255-.805.523-1.282.759-1.524zm-.92 1.795-.658-.179-.003.011.658.179.657.178.003-.01zm-.003.011-.65-.206c-.275.87-.404 1.654-.304 2.306l.674-.104.673-.103c-.053-.346.005-.893.256-1.687zm-.28 1.996-.673.109c.053.328.167.644.376.91.213.271.497.453.821.55l.194-.653.195-.653a.25.25 0 0 1-.138-.086.6.6 0 0 1-.103-.285zm.718.916-.194.653c.326.097.664.101.993-.006.322-.105.595-.304.825-.548l-.498-.466-.497-.466a.6.6 0 0 1-.253.184.3.3 0 0 1-.181-.004zm1.126-.367.495.468c.456-.48.803-1.197 1.078-2.067l-.65-.206-.649-.205c-.251.793-.52 1.28-.768 1.541zm.923-1.805.658.179.003-.012-.657-.179-.658-.178-.003.012zm.004-.012.649.206c.277-.874.407-1.66.299-2.305l-.672.114-.672.113c.054.323.001.86-.254 1.666zm.276-1.985.674-.1a1.9 1.9 0 0 0-.372-.917 1.62 1.62 0 0 0-.827-.551l-.194.653-.194.653c.082.024.119.056.143.087a.6.6 0 0 1 .096.274z"></path><path fill="url(#ton-promo-paint31)" fill-rule="evenodd" d="M339.151 53.15q1.286.384 2.023 1.242.749.86.897 2.095.163 1.227-.311 2.727l-.004.011q-.471 1.49-1.32 2.427-.837.94-1.958 1.26-1.107.31-2.394-.073-1.275-.38-2.024-1.241-.744-.873-.903-2.11-.16-1.239.311-2.727l.004-.012q.475-1.5 1.319-2.426.849-.938 1.966-1.245 1.118-.306 2.394.073m-.729 2.303q-.6-.18-1.125.366-.52.535-.92 1.794l-.003.012q-.396 1.248-.28 1.996.119.737.719.916.61.181 1.125-.367.528-.558.923-1.805l.004-.012q.398-1.26.276-1.985-.108-.734-.719-.916" clip-rule="evenodd"></path><path fill="url(#ton-promo-paint32)" d="m341.155 45.975-15.534 13.46-3.216-.956 15.534-13.46z"></path><path fill="url(#ton-promo-paint33)" fill-rule="evenodd" d="M327.662 41.666q1.287.383 2.024 1.241.749.861.897 2.096.163 1.225-.312 2.727l-.003.011q-.471 1.488-1.32 2.427-.837.94-1.958 1.26-1.107.309-2.394-.074-1.275-.38-2.024-1.24-.744-.873-.904-2.111-.159-1.238.312-2.726l.004-.012q.474-1.5 1.319-2.427.848-.938 1.966-1.245 1.118-.306 2.393.073m-.728 2.302q-.6-.179-1.125.367-.52.534-.92 1.794l-.003.012q-.396 1.248-.28 1.996.118.736.719.915.61.183 1.125-.367.528-.556.923-1.805l.003-.011q.399-1.26.277-1.985-.108-.735-.719-.916" clip-rule="evenodd"></path><path stroke="url(#ton-promo-paint34)" stroke-linejoin="round" stroke-width="1.382" d="M339.151 53.15q1.286.384 2.023 1.242.749.86.897 2.095.163 1.227-.311 2.727l-.004.011q-.471 1.49-1.32 2.427-.837.94-1.958 1.26-1.107.31-2.394-.073-1.275-.38-2.024-1.241-.744-.873-.903-2.11-.16-1.239.311-2.727l.004-.012q.475-1.5 1.319-2.426.849-.938 1.966-1.245 1.118-.306 2.394.073Zm-.729 2.303q-.6-.18-1.125.366-.52.535-.92 1.794l-.003.012q-.396 1.248-.28 1.996.119.737.719.916.61.181 1.125-.367.528-.558.923-1.805l.004-.012q.398-1.26.276-1.985-.108-.734-.719-.916Z" clip-rule="evenodd"></path><path stroke="url(#ton-promo-paint35)" stroke-linejoin="round" stroke-width="1.382" d="m341.155 45.975-15.534 13.46-3.216-.956 15.534-13.46z"></path><path stroke="url(#ton-promo-paint36)" stroke-linejoin="round" stroke-width="1.382" d="M327.662 41.666q1.287.383 2.024 1.241.749.861.897 2.096.163 1.225-.312 2.727l-.003.011q-.471 1.488-1.32 2.427-.837.94-1.958 1.26-1.107.309-2.394-.074-1.275-.38-2.024-1.24-.744-.873-.904-2.111-.159-1.238.312-2.726l.004-.012q.474-1.5 1.319-2.427.848-.938 1.966-1.244t2.393.072Zm-.728 2.302q-.6-.179-1.125.367-.52.534-.92 1.794l-.003.012q-.396 1.248-.28 1.996.118.736.719.915.61.183 1.125-.367.528-.556.923-1.805l.003-.011q.399-1.26.277-1.985-.108-.735-.719-.916Z" clip-rule="evenodd"></path><path stroke="#AFFBDB" stroke-linecap="round" stroke-linejoin="round" stroke-width="1.382" d="M339.151 53.152q1.286.382 2.024 1.24.747.861.896 2.096.164 1.226-.311 2.727l-.004.011m-3.817-14.207 3.216.957-4.546 3.939m-8.947-8.248q1.287.383 2.025 1.24.747.863.896 2.097"></path></svg>